# xmcd
#
# Track frame offsets: 
#        150
#        18142
#        32605
#        45570
#        65437
#        81027
#        96337
#        115722
#        128602
#        147602
#        164322
#        183110
#
# Disc length: 2679 seconds
#
# Revision: 3
# Processed by: cddbd v1.5.2PL0 Copyright (c) Steve Scherf et al.
# Submitted via: ExactAudioCopyFreeDBPlugin 1.0
#
DISCID=920a750c
DTITLE=Freddie King - Getting Ready
DYEAR=1989
DGENRE=Blues
TTITLE0=Same Old Blues
TTITLE1=Dust My Broom
TTITLE2=Worried Life Blues
TTITLE3=Five Long Years
TTITLE4=Key To The Highway
TTITLE5=Going Down
TTITLE6=Living On The Highway
TTITLE7=Walking By Myself
TTITLE8=Tore Down
TTITLE9=Palace Of The King
TTITLE10=Gimme Some Lovin' - Prev Unrelease
TTITLE11=Send Me Someone To Love - Prev Unrelease
EXTD=
EXTT0=
EXTT1=
EXTT2=
EXTT3=
EXTT4=
EXTT5=
EXTT6=
EXTT7=
EXTT8=
EXTT9=
EXTT10=
EXTT11=
PLAYORDER=
